<?xml version="1.0" encoding="iso-8859-1"?>
<!-- Generator: Adobe Illustrator 18.1.1, SVG Export Plug-In . SVG Version: 6.00 Build 0)  -->
<svg version="1.1" id="Capa_1" xmlns="http://www.w3.org/2000/svg" xmlns:xlink="http://www.w3.org/1999/xlink" x="0px" y="0px"
	 viewBox="0 0 29.242 29.242" style="enable-background:new 0 0 29.242 29.242;" xml:space="preserve">
<g>
	<g id="c69_facebook">
		<path d="M26.918,0.668H2.326C1.039,0.668,0,1.707,0,2.992v23.259c0,1.282,1.039,2.323,2.326,2.323h24.592
			c1.279,0,2.324-1.041,2.324-2.323V2.992C29.242,1.707,28.197,0.668,26.918,0.668z M19.656,8.953
			C19.051,8.599,18.572,8.32,17.97,8.32c-0.59,0-1.096,0.147-1.354,0.396c-0.256,0.246-0.385,0.723-0.385,1.428v1.041h3.154
			l-0.682,2.899H16.23v9.633h-3.961v-9.633h-1.85v-2.899h1.85v-1.107c0-1.164,0.139-1.861,0.414-2.438
			c0.275-0.573,0.809-1.211,1.549-1.572c0.738-0.361,1.832-0.543,2.965-0.543c1.16,0,2.066,0.387,3.178,0.699L19.656,8.953z"/>
	</g>
</g>
<g>
</g>
<g>
</g>
<g>
</g>
<g>
</g>
<g>
</g>
<g>
</g>
<g>
</g>
<g>
</g>
<g>
</g>
<g>
</g>
<g>
</g>
<g>
</g>
<g>
</g>
<g>
</g>
<g>
</g>
</svg>
